<?xml version="1.0" encoding="UTF-8" ?>
<svg version="1.1" width="16" height="16" xmlns="http://www.w3.org/2000/svg" shape-rendering="crispEdges">
<rect x="0" y="0" width="8" height="2" fill="#3F3532" />
<rect x="8" y="0" width="1" height="1" fill="#7C825E" />
<rect x="9" y="0" width="7" height="3" fill="#3F3532" />
<rect x="8" y="1" width="1" height="15" fill="#3F3532" />
<rect x="0" y="2" width="1" height="14" fill="#3F3532" />
<rect x="1" y="2" width="1" height="1" fill="#7C825E" />
<rect x="2" y="2" width="6" height="1" fill="#3F3532" />
<rect x="1" y="3" width="3" height="1" fill="#3F3532" />
<rect x="4" y="3" width="1" height="1" fill="#B6BF8A" />
<rect x="5" y="3" width="3" height="2" fill="#3F3532" />
<rect x="9" y="3" width="2" height="1" fill="#3F3532" />
<rect x="11" y="3" width="3" height="1" fill="#B6BF8A" />
<rect x="14" y="3" width="2" height="2" fill="#3F3532" />
<rect x="1" y="4" width="2" height="3" fill="#3F3532" />
<rect x="3" y="4" width="1" height="1" fill="#B6BF8A" />
<rect x="4" y="4" width="1" height="1" fill="#886974" />
<rect x="9" y="4" width="1" height="1" fill="#3F3532" />
<rect x="10" y="4" width="1" height="1" fill="#B6BF8A" />
<rect x="11" y="4" width="3" height="1" fill="#886974" />
<rect x="3" y="5" width="1" height="3" fill="#886974" />
<rect x="4" y="5" width="1" height="3" fill="#3F3532" />
<rect x="5" y="5" width="1" height="3" fill="#886974" />
<rect x="6" y="5" width="2" height="3" fill="#3F3532" />
<rect x="9" y="5" width="1" height="1" fill="#B6BF8A" />
<rect x="10" y="5" width="1" height="1" fill="#886974" />
<rect x="11" y="5" width="3" height="2" fill="#3F3532" />
<rect x="14" y="5" width="1" height="1" fill="#886974" />
<rect x="15" y="5" width="1" height="11" fill="#3F3532" />
<rect x="9" y="6" width="1" height="4" fill="#886974" />
<rect x="10" y="6" width="1" height="4" fill="#3F3532" />
<rect x="14" y="6" width="1" height="3" fill="#3F3532" />
<rect x="1" y="7" width="1" height="2" fill="#3F3532" />
<rect x="2" y="7" width="1" height="1" fill="#B6BF8A" />
<rect x="11" y="7" width="1" height="4" fill="#3F3532" />
<rect x="12" y="7" width="1" height="1" fill="#7C825E" />
<rect x="13" y="7" width="1" height="3" fill="#3F3532" />
<rect x="2" y="8" width="1" height="2" fill="#886974" />
<rect x="3" y="8" width="3" height="1" fill="#B6BF8A" />
<rect x="6" y="8" width="1" height="2" fill="#886974" />
<rect x="7" y="8" width="1" height="2" fill="#3F3532" />
<rect x="12" y="8" width="1" height="3" fill="#3F3532" />
<rect x="1" y="9" width="1" height="1" fill="#B6BF8A" />
<rect x="3" y="9" width="3" height="1" fill="#886974" />
<rect x="14" y="9" width="1" height="1" fill="#B6BF8A" />
<rect x="1" y="10" width="1" height="2" fill="#886974" />
<rect x="2" y="10" width="5" height="4" fill="#3F3532" />
<rect x="7" y="10" width="1" height="2" fill="#886974" />
<rect x="9" y="10" width="1" height="6" fill="#3F3532" />
<rect x="10" y="10" width="1" height="1" fill="#886974" />
<rect x="13" y="10" width="1" height="1" fill="#B6BF8A" />
<rect x="14" y="10" width="1" height="1" fill="#886974" />
<rect x="10" y="11" width="1" height="5" fill="#3F3532" />
<rect x="11" y="11" width="3" height="1" fill="#886974" />
<rect x="14" y="11" width="1" height="5" fill="#3F3532" />
<rect x="1" y="12" width="1" height="4" fill="#3F3532" />
<rect x="7" y="12" width="1" height="4" fill="#3F3532" />
<rect x="11" y="12" width="3" height="4" fill="#3F3532" />
<rect x="2" y="14" width="4" height="2" fill="#3F3532" />
<rect x="6" y="14" width="1" height="1" fill="#7C825E" />
<rect x="6" y="15" width="1" height="1" fill="#3F3532" />
</svg>